<svg id="__svg__icons__dom__" xmlns="http://www.w3.org/2000/svg"
    xmlns:link="http://www.w3.org/1999/xlink" style="position: absolute; width: 0px; height: 0px;">
    <symbol viewBox="-5 0 20 20" id="icon-facebook">
        <path
            d="M6.821 20v-9h2.733L10 7H6.821V5.052C6.821 4.022 6.848 3 8.287 3h1.458V.14c0-.043-1.253-.14-2.52-.14C4.58 0 2.924 1.657 2.924 4.7V7H0v4h2.923v9h3.898Z"
            fill-rule="evenodd"></path>
    </symbol>
    <symbol viewBox="0 0 24 24" id="icon-instagram">
        <path fill-rule="evenodd" clip-rule="evenodd"
            d="M12 18a6 6 0 1 0 0-12 6 6 0 0 0 0 12Zm0-2a4 4 0 1 0 0-8 4 4 0 0 0 0 8Z"></path>
        <path d="M18 5a1 1 0 1 0 0 2 1 1 0 0 0 0-2Z"></path>
        <path fill-rule="evenodd" clip-rule="evenodd"
            d="M1.654 4.276C1 5.56 1 7.24 1 10.6v2.8c0 3.36 0 5.04.654 6.324a6 6 0 0 0 2.622 2.622C5.56 23 7.24 23 10.6 23h2.8c3.36 0 5.04 0 6.324-.654a6 6 0 0 0 2.622-2.622C23 18.44 23 16.76 23 13.4v-2.8c0-3.36 0-5.04-.654-6.324a6 6 0 0 0-2.622-2.622C18.44 1 16.76 1 13.4 1h-2.8c-3.36 0-5.04 0-6.324.654a6 6 0 0 0-2.622 2.622ZM13.4 3h-2.8c-1.713 0-2.878.002-3.778.075-.877.072-1.325.202-1.638.361a4 4 0 0 0-1.748 1.748c-.16.313-.29.761-.36 1.638C3.001 7.722 3 8.887 3 10.6v2.8c0 1.713.002 2.878.075 3.778.072.877.202 1.325.361 1.638a4 4 0 0 0 1.748 1.748c.313.16.761.29 1.638.36.9.074 2.065.076 3.778.076h2.8c1.713 0 2.878-.002 3.778-.075.877-.072 1.325-.202 1.638-.361a4 4 0 0 0 1.748-1.748c.16-.313.29-.761.36-1.638.074-.9.076-2.065.076-3.778v-2.8c0-1.713-.002-2.878-.075-3.778-.072-.877-.202-1.325-.361-1.638a4 4 0 0 0-1.748-1.748c-.313-.16-.761-.29-1.638-.36C16.278 3.001 15.113 3 13.4 3Z"></path>
    </symbol>
    <symbol viewBox="0 0 24 24" fill="none" id="icon-linkedin">
        <path
            d="M18.72 4H5.37A1.31 1.31 0 0 0 4 5.25v13.38A1.41 1.41 0 0 0 5.37 20h13.35A1.34 1.34 0 0 0 20 18.63V5.25A1.23 1.23 0 0 0 18.72 4ZM9 17.34H6.67v-7.13H9v7.13ZM7.89 9.13A1.18 1.18 0 0 1 6.67 7.9a1.18 1.18 0 0 1 1.24-1.23A1.18 1.18 0 0 1 9.13 7.9a1.18 1.18 0 0 1-1.24 1.23Zm9.45 8.21H15v-3.9c0-.93-.33-1.57-1.16-1.57a1.25 1.25 0 0 0-1.17.84 1.431 1.431 0 0 0-.08.57v4.06h-2.3v-7.13h2.3v1a2.32 2.32 0 0 1 2.1-1.21c1.51 0 2.65 1 2.65 3.13v4.21Z"></path>
    </symbol>
    <symbol viewBox="0 0 24 24" id="icon-tiktok">
        <path
            d="M16.822 5.134A4.75 4.75 0 0 1 15.648 2h-.919a4.763 4.763 0 0 0 2.093 3.134ZM8.322 11.905a2.89 2.89 0 0 0-2.886 2.888c0 1.11.63 2.076 1.55 2.559a2.859 2.859 0 0 1-.548-1.686 2.89 2.89 0 0 1 2.886-2.888c.297 0 .585.05.854.134v-3.51a6.419 6.419 0 0 0-.854-.06c-.051 0-.097.004-.149.004v2.693a2.905 2.905 0 0 0-.853-.134Z"></path>
        <path
            d="M19.424 6.676v2.67a8.172 8.172 0 0 1-4.778-1.537v6.989c0 3.487-2.835 6.329-6.324 6.329a6.296 6.296 0 0 1-3.624-1.147A6.312 6.312 0 0 0 9.324 22c3.484 0 6.324-2.837 6.324-6.33V8.683a8.172 8.172 0 0 0 4.779 1.537V6.783a4.7 4.7 0 0 1-1.003-.107Z"></path>
        <path
            d="M14.646 14.798V7.809a8.172 8.172 0 0 0 4.778 1.537v-2.67a4.773 4.773 0 0 1-2.602-1.542A4.802 4.802 0 0 1 14.725 2H12.21l-.005 13.777a2.89 2.89 0 0 1-2.881 2.782 2.898 2.898 0 0 1-2.343-1.203 2.899 2.899 0 0 1-1.55-2.558 2.89 2.89 0 0 1 2.886-2.889c.297 0 .585.051.854.135V9.351C5.756 9.425 3 12.23 3 15.67a6.31 6.31 0 0 0 1.698 4.309 6.296 6.296 0 0 0 3.624 1.147c3.484 0 6.324-2.842 6.324-6.33Z"></path>
    </symbol>
    <symbol viewBox="0 0 24 24" id="icon-twitter">
        <path fill-rule="evenodd" clip-rule="evenodd"
            d="M14.849 5.658a3.086 3.086 0 0 0-3.027 3.693 1 1 0 0 1-1.103 1.188 11.167 11.167 0 0 1-5.834-2.544c.031.602.24 1.242.693 1.912l.679 1.004-1.115.475-.215.092c.16.183.352.37.567.555a8.22 8.22 0 0 0 .91.676l.011.007h.001l1.548.939-1.62.81c-.08.04-.16.076-.24.108a5.34 5.34 0 0 0 1.142.726l1.39.657-1.164 1.004c-.635.548-1.274.957-2.103 1.173A8.748 8.748 0 0 0 9.5 19.16c4.806 0 8.676-3.835 8.676-8.534v-.52l.425-.299c.664-.466 1.133-1.096 1.469-1.817h-2.16l-.272-.57a3.086 3.086 0 0 0-2.788-1.762Zm-11.28 7.3a1 1 0 0 0-.237.797c.113.801.592 1.491 1.122 2.018.144.143.298.28.46.411l-.075.02c-.481.12-1.13.145-2.211.04a1 1 0 0 0-.813 1.694 10.716 10.716 0 0 0 7.684 3.222c5.713 0 10.399-4.436 10.664-10.034 1.29-1.083 1.935-2.55 2.283-3.883a1 1 0 0 0-.968-1.253h-2.353A5.086 5.086 0 0 0 9.78 8.329a9.214 9.214 0 0 1-4.721-2.975 1 1 0 0 0-1.673.23C2.78 6.906 2.664 8.43 3.34 9.98l-.234.1a1 1 0 0 0-.57 1.193c.186.652.604 1.228 1.032 1.685Z"></path>
    </symbol>
    <symbol viewBox="0 -3 20 20" id="icon-youtube">
        <path
            d="M7.988 9.586V3.974c1.993.938 3.536 1.843 5.36 2.82-1.505.834-3.367 1.77-5.36 2.792m11.103-8.403c-.344-.453-.93-.805-1.553-.922-1.833-.348-13.267-.349-15.099 0-.5.094-.945.32-1.328.673C-.5 2.429.005 10.452.393 11.75c.164.562.375.968.64 1.235.343.352.812.594 1.351.703 1.51.312 9.284.486 15.122.047a2.62 2.62 0 0 0 1.39-.712c1.49-1.49 1.388-9.962.195-11.841"
            fill-rule="evenodd"></path>
    </symbol>
</svg>